<svg id="visual" viewBox="0 0 900 600" width="900" height="600" xmlns="http://www.w3.org/2000/svg" xmlns:xlink="http://www.w3.org/1999/xlink" version="1.1"><g stroke-width="1" stroke-linejoin="bevel"><path d="M471 302L506 389L570 372Z" fill="#297ea6" stroke="#297ea6"></path><path d="M570 372L639 299L471 302Z" fill="#1d4e6b" stroke="#1d4e6b"></path><path d="M471 302L426 426L506 389Z" fill="#246688" stroke="#246688"></path><path d="M722 495L703 368L570 372Z" fill="#246688" stroke="#246688"></path><path d="M639 299L523 184L471 302Z" fill="#112e42" stroke="#112e42"></path><path d="M639 299L589 177L523 184Z" fill="#297ea6" stroke="#297ea6"></path><path d="M369 226L366 279L471 302Z" fill="#081a28" stroke="#081a28"></path><path d="M471 302L366 279L426 426Z" fill="#15384f" stroke="#15384f"></path><path d="M570 372L703 368L639 299Z" fill="#297ea6" stroke="#297ea6"></path><path d="M639 299L735 197L589 177Z" fill="#15384f" stroke="#15384f"></path><path d="M562 527L570 372L506 389Z" fill="#277297" stroke="#277297"></path><path d="M523 184L369 226L471 302Z" fill="#112e42" stroke="#112e42"></path><path d="M426 426L509 525L506 389Z" fill="#1d4e6b" stroke="#1d4e6b"></path><path d="M509 525L562 527L506 389Z" fill="#15384f" stroke="#15384f"></path><path d="M703 368L732 300L639 299Z" fill="#0c2435" stroke="#0c2435"></path><path d="M284 283L300 381L366 279Z" fill="#277297" stroke="#277297"></path><path d="M366 279L300 381L426 426Z" fill="#00101c" stroke="#00101c"></path><path d="M426 426L411 537L509 525Z" fill="#19435d" stroke="#19435d"></path><path d="M278 474L411 537L426 426Z" fill="#0c2435" stroke="#0c2435"></path><path d="M509 525L478 600L562 527Z" fill="#205a7a" stroke="#205a7a"></path><path d="M401 80L369 226L523 184Z" fill="#00101c" stroke="#00101c"></path><path d="M401 80L335 179L369 226Z" fill="#15384f" stroke="#15384f"></path><path d="M369 226L284 283L366 279Z" fill="#1d4e6b" stroke="#1d4e6b"></path><path d="M700 126L578 93L589 177Z" fill="#00101c" stroke="#00101c"></path><path d="M589 177L578 93L523 184Z" fill="#19435d" stroke="#19435d"></path><path d="M578 93L499 87L523 184Z" fill="#297ea6" stroke="#297ea6"></path><path d="M335 179L284 283L369 226Z" fill="#19435d" stroke="#19435d"></path><path d="M732 300L735 197L639 299Z" fill="#1d4e6b" stroke="#1d4e6b"></path><path d="M562 527L722 495L570 372Z" fill="#15384f" stroke="#15384f"></path><path d="M703 368L821 379L732 300Z" fill="#081a28" stroke="#081a28"></path><path d="M735 197L700 126L589 177Z" fill="#15384f" stroke="#15384f"></path><path d="M411 537L478 600L509 525Z" fill="#0c2435" stroke="#0c2435"></path><path d="M562 527L633 600L722 495Z" fill="#15384f" stroke="#15384f"></path><path d="M499 87L401 80L523 184Z" fill="#00101c" stroke="#00101c"></path><path d="M239 432L278 474L300 381Z" fill="#081a28" stroke="#081a28"></path><path d="M300 381L278 474L426 426Z" fill="#246688" stroke="#246688"></path><path d="M411 537L426 600L478 600Z" fill="#205a7a" stroke="#205a7a"></path><path d="M269 600L426 600L411 537Z" fill="#277297" stroke="#277297"></path><path d="M478 600L633 600L562 527Z" fill="#277297" stroke="#277297"></path><path d="M722 495L821 379L703 368Z" fill="#246688" stroke="#246688"></path><path d="M732 300L833 295L735 197Z" fill="#19435d" stroke="#19435d"></path><path d="M760 518L821 379L722 495Z" fill="#081a28" stroke="#081a28"></path><path d="M675 600L760 518L722 495Z" fill="#081a28" stroke="#081a28"></path><path d="M201 304L239 432L300 381Z" fill="#15384f" stroke="#15384f"></path><path d="M633 600L675 600L722 495Z" fill="#19435d" stroke="#19435d"></path><path d="M821 379L833 295L732 300Z" fill="#19435d" stroke="#19435d"></path><path d="M735 197L800 180L700 126Z" fill="#0c2435" stroke="#0c2435"></path><path d="M833 295L800 180L735 197Z" fill="#246688" stroke="#246688"></path><path d="M178 184L201 304L284 283Z" fill="#1d4e6b" stroke="#1d4e6b"></path><path d="M284 283L201 304L300 381Z" fill="#112e42" stroke="#112e42"></path><path d="M178 184L284 283L335 179Z" fill="#19435d" stroke="#19435d"></path><path d="M578 93L536 0L499 87Z" fill="#19435d" stroke="#19435d"></path><path d="M499 87L376 0L401 80Z" fill="#00101c" stroke="#00101c"></path><path d="M576 0L536 0L578 93Z" fill="#277297" stroke="#277297"></path><path d="M576 0L578 93L719 0Z" fill="#00101c" stroke="#00101c"></path><path d="M719 0L578 93L700 126Z" fill="#277297" stroke="#277297"></path><path d="M376 0L286 93L401 80Z" fill="#277297" stroke="#277297"></path><path d="M401 80L286 93L335 179Z" fill="#19435d" stroke="#19435d"></path><path d="M536 0L376 0L499 87Z" fill="#19435d" stroke="#19435d"></path><path d="M161 469L278 474L239 432Z" fill="#205a7a" stroke="#205a7a"></path><path d="M230 600L269 600L278 474Z" fill="#297ea6" stroke="#297ea6"></path><path d="M278 474L269 600L411 537Z" fill="#00101c" stroke="#00101c"></path><path d="M675 600L781 600L760 518Z" fill="#15384f" stroke="#15384f"></path><path d="M900 492L900 399L821 379Z" fill="#277297" stroke="#277297"></path><path d="M286 93L218 118L335 179Z" fill="#19435d" stroke="#19435d"></path><path d="M179 0L218 118L286 93Z" fill="#0c2435" stroke="#0c2435"></path><path d="M218 118L178 184L335 179Z" fill="#297ea6" stroke="#297ea6"></path><path d="M900 399L900 274L833 295Z" fill="#081a28" stroke="#081a28"></path><path d="M833 295L900 274L800 180Z" fill="#277297" stroke="#277297"></path><path d="M900 399L833 295L821 379Z" fill="#277297" stroke="#277297"></path><path d="M900 492L821 379L760 518Z" fill="#246688" stroke="#246688"></path><path d="M818 67L700 126L800 180Z" fill="#205a7a" stroke="#205a7a"></path><path d="M818 67L719 0L700 126Z" fill="#1d4e6b" stroke="#1d4e6b"></path><path d="M130 362L239 432L201 304Z" fill="#297ea6" stroke="#297ea6"></path><path d="M130 362L161 469L239 432Z" fill="#1d4e6b" stroke="#1d4e6b"></path><path d="M900 125L818 67L800 180Z" fill="#081a28" stroke="#081a28"></path><path d="M90 286L130 362L201 304Z" fill="#15384f" stroke="#15384f"></path><path d="M161 469L230 600L278 474Z" fill="#19435d" stroke="#19435d"></path><path d="M376 0L300 0L286 93Z" fill="#297ea6" stroke="#297ea6"></path><path d="M900 274L900 177L800 180Z" fill="#277297" stroke="#277297"></path><path d="M781 600L900 492L760 518Z" fill="#246688" stroke="#246688"></path><path d="M900 177L900 125L800 180Z" fill="#0c2435" stroke="#0c2435"></path><path d="M900 0L801 0L818 67Z" fill="#112e42" stroke="#112e42"></path><path d="M818 67L801 0L719 0Z" fill="#277297" stroke="#277297"></path><path d="M130 362L113 463L161 469Z" fill="#15384f" stroke="#15384f"></path><path d="M161 469L102 600L230 600Z" fill="#00101c" stroke="#00101c"></path><path d="M76 238L90 286L178 184Z" fill="#246688" stroke="#246688"></path><path d="M178 184L90 286L201 304Z" fill="#00101c" stroke="#00101c"></path><path d="M130 362L0 382L113 463Z" fill="#277297" stroke="#277297"></path><path d="M76 238L178 184L128 87Z" fill="#19435d" stroke="#19435d"></path><path d="M128 87L178 184L218 118Z" fill="#297ea6" stroke="#297ea6"></path><path d="M90 286L0 382L130 362Z" fill="#19435d" stroke="#19435d"></path><path d="M781 600L900 600L900 492Z" fill="#19435d" stroke="#19435d"></path><path d="M179 0L128 87L218 118Z" fill="#1d4e6b" stroke="#1d4e6b"></path><path d="M300 0L179 0L286 93Z" fill="#277297" stroke="#277297"></path><path d="M900 125L900 0L818 67Z" fill="#112e42" stroke="#112e42"></path><path d="M0 499L102 600L113 463Z" fill="#277297" stroke="#277297"></path><path d="M113 463L102 600L161 469Z" fill="#15384f" stroke="#15384f"></path><path d="M179 0L126 0L128 87Z" fill="#19435d" stroke="#19435d"></path><path d="M0 164L0 269L76 238Z" fill="#297ea6" stroke="#297ea6"></path><path d="M0 269L0 382L90 286Z" fill="#112e42" stroke="#112e42"></path><path d="M0 269L90 286L76 238Z" fill="#19435d" stroke="#19435d"></path><path d="M0 164L76 238L128 87Z" fill="#1d4e6b" stroke="#1d4e6b"></path><path d="M0 73L0 164L128 87Z" fill="#277297" stroke="#277297"></path><path d="M0 382L0 499L113 463Z" fill="#1d4e6b" stroke="#1d4e6b"></path><path d="M126 0L0 73L128 87Z" fill="#1d4e6b" stroke="#1d4e6b"></path><path d="M0 499L0 600L102 600Z" fill="#0c2435" stroke="#0c2435"></path><path d="M126 0L0 0L0 73Z" fill="#112e42" stroke="#112e42"></path></g></svg>