<svg id="visual" viewBox="0 0 900 600" width="900" height="600" xmlns="http://www.w3.org/2000/svg" xmlns:xlink="http://www.w3.org/1999/xlink" version="1.1"><path d="M0 247L13.7 237C27.3 227 54.7 207 82 186C109.3 165 136.7 143 163.8 134C191 125 218 129 245.2 135C272.3 141 299.7 149 327 146C354.3 143 381.7 129 409 131C436.3 133 463.7 151 491 177C518.3 203 545.7 237 573 251C600.3 265 627.7 259 654.8 255C682 251 709 249 736.2 221C763.3 193 790.7 139 818 124C845.3 109 872.7 133 886.3 145L900 157L900 0L886.3 0C872.7 0 845.3 0 818 0C790.7 0 763.3 0 736.2 0C709 0 682 0 654.8 0C627.7 0 600.3 0 573 0C545.7 0 518.3 0 491 0C463.7 0 436.3 0 409 0C381.7 0 354.3 0 327 0C299.7 0 272.3 0 245.2 0C218 0 191 0 163.8 0C136.7 0 109.3 0 82 0C54.7 0 27.3 0 13.7 0L0 0Z" fill="#6198ff"></path><path d="M0 367L13.7 353C27.3 339 54.7 311 82 300C109.3 289 136.7 295 163.8 305C191 315 218 329 245.2 330C272.3 331 299.7 319 327 313C354.3 307 381.7 307 409 311C436.3 315 463.7 323 491 331C518.3 339 545.7 347 573 349C600.3 351 627.7 347 654.8 343C682 339 709 335 736.2 328C763.3 321 790.7 311 818 315C845.3 319 872.7 337 886.3 346L900 355L900 155L886.3 143C872.7 131 845.3 107 818 122C790.7 137 763.3 191 736.2 219C709 247 682 249 654.8 253C627.7 257 600.3 263 573 249C545.7 235 518.3 201 491 175C463.7 149 436.3 131 409 129C381.7 127 354.3 141 327 144C299.7 147 272.3 139 245.2 133C218 127 191 123 163.8 132C136.7 141 109.3 163 82 184C54.7 205 27.3 225 13.7 235L0 245Z" fill="#3c80ff"></path><path d="M0 451L13.7 437C27.3 423 54.7 395 82 384C109.3 373 136.7 379 163.8 383C191 387 218 389 245.2 383C272.3 377 299.7 363 327 361C354.3 359 381.7 369 409 385C436.3 401 463.7 423 491 426C518.3 429 545.7 413 573 409C600.3 405 627.7 413 654.8 423C682 433 709 445 736.2 441C763.3 437 790.7 417 818 410C845.3 403 872.7 409 886.3 412L900 415L900 353L886.3 344C872.7 335 845.3 317 818 313C790.7 309 763.3 319 736.2 326C709 333 682 337 654.8 341C627.7 345 600.3 349 573 347C545.7 345 518.3 337 491 329C463.7 321 436.3 313 409 309C381.7 305 354.3 305 327 311C299.7 317 272.3 329 245.2 328C218 327 191 313 163.8 303C136.7 293 109.3 287 82 298C54.7 309 27.3 337 13.7 351L0 365Z" fill="#0066ff"></path><path d="M0 541L13.7 538C27.3 535 54.7 529 82 522C109.3 515 136.7 507 163.8 513C191 519 218 539 245.2 542C272.3 545 299.7 531 327 529C354.3 527 381.7 537 409 543C436.3 549 463.7 551 491 545C518.3 539 545.7 525 573 527C600.3 529 627.7 547 654.8 552C682 557 709 549 736.2 541C763.3 533 790.7 525 818 518C845.3 511 872.7 505 886.3 502L900 499L900 413L886.3 410C872.7 407 845.3 401 818 408C790.7 415 763.3 435 736.2 439C709 443 682 431 654.8 421C627.7 411 600.3 403 573 407C545.7 411 518.3 427 491 424C463.7 421 436.3 399 409 383C381.7 367 354.3 357 327 359C299.7 361 272.3 375 245.2 381C218 387 191 385 163.8 381C136.7 377 109.3 371 82 382C54.7 393 27.3 421 13.7 435L0 449Z" fill="#0059dd"></path><path d="M0 601L13.7 601C27.3 601 54.7 601 82 601C109.3 601 136.7 601 163.8 601C191 601 218 601 245.2 601C272.3 601 299.7 601 327 601C354.3 601 381.7 601 409 601C436.3 601 463.7 601 491 601C518.3 601 545.7 601 573 601C600.3 601 627.7 601 654.8 601C682 601 709 601 736.2 601C763.3 601 790.7 601 818 601C845.3 601 872.7 601 886.3 601L900 601L900 497L886.3 500C872.7 503 845.3 509 818 516C790.7 523 763.3 531 736.2 539C709 547 682 555 654.8 550C627.7 545 600.3 527 573 525C545.7 523 518.3 537 491 543C463.7 549 436.3 547 409 541C381.7 535 354.3 525 327 527C299.7 529 272.3 543 245.2 540C218 537 191 517 163.8 511C136.7 505 109.3 513 82 520C54.7 527 27.3 533 13.7 536L0 539Z" fill="#004cbb"></path></svg>