<svg id="visual" viewBox="0 0 900 600" width="900" height="600" xmlns="http://www.w3.org/2000/svg" xmlns:xlink="http://www.w3.org/1999/xlink" version="1.1"><path d="M0 175L13.7 179C27.3 183 54.7 191 82 178C109.3 165 136.7 131 163.8 130C191 129 218 161 245.2 173C272.3 185 299.7 177 327 175C354.3 173 381.7 177 409 182C436.3 187 463.7 193 491 196C518.3 199 545.7 199 573 206C600.3 213 627.7 227 654.8 230C682 233 709 225 736.2 208C763.3 191 790.7 165 818 155C845.3 145 872.7 151 886.3 154L900 157L900 0L886.3 0C872.7 0 845.3 0 818 0C790.7 0 763.3 0 736.2 0C709 0 682 0 654.8 0C627.7 0 600.3 0 573 0C545.7 0 518.3 0 491 0C463.7 0 436.3 0 409 0C381.7 0 354.3 0 327 0C299.7 0 272.3 0 245.2 0C218 0 191 0 163.8 0C136.7 0 109.3 0 82 0C54.7 0 27.3 0 13.7 0L0 0Z" fill="#327fa5"></path><path d="M0 415L13.7 419C27.3 423 54.7 431 82 420C109.3 409 136.7 379 163.8 358C191 337 218 325 245.2 331C272.3 337 299.7 361 327 360C354.3 359 381.7 333 409 336C436.3 339 463.7 371 491 376C518.3 381 545.7 359 573 364C600.3 369 627.7 401 654.8 404C682 407 709 381 736.2 367C763.3 353 790.7 351 818 350C845.3 349 872.7 349 886.3 349L900 349L900 155L886.3 152C872.7 149 845.3 143 818 153C790.7 163 763.3 189 736.2 206C709 223 682 231 654.8 228C627.7 225 600.3 211 573 204C545.7 197 518.3 197 491 194C463.7 191 436.3 185 409 180C381.7 175 354.3 171 327 173C299.7 175 272.3 183 245.2 171C218 159 191 127 163.8 128C136.7 129 109.3 163 82 176C54.7 189 27.3 181 13.7 177L0 173Z" fill="#265a79"></path><path d="M0 463L13.7 476C27.3 489 54.7 515 82 506C109.3 497 136.7 453 163.8 435C191 417 218 425 245.2 436C272.3 447 299.7 461 327 462C354.3 463 381.7 451 409 447C436.3 443 463.7 447 491 444C518.3 441 545.7 431 573 446C600.3 461 627.7 501 654.8 504C682 507 709 473 736.2 460C763.3 447 790.7 455 818 450C845.3 445 872.7 427 886.3 418L900 409L900 347L886.3 347C872.7 347 845.3 347 818 348C790.7 349 763.3 351 736.2 365C709 379 682 405 654.8 402C627.7 399 600.3 367 573 362C545.7 357 518.3 379 491 374C463.7 369 436.3 337 409 334C381.7 331 354.3 357 327 358C299.7 359 272.3 335 245.2 329C218 323 191 335 163.8 356C136.7 377 109.3 407 82 418C54.7 429 27.3 421 13.7 417L0 413Z" fill="#18384f"></path><path d="M0 601L13.7 601C27.3 601 54.7 601 82 601C109.3 601 136.7 601 163.8 601C191 601 218 601 245.2 601C272.3 601 299.7 601 327 601C354.3 601 381.7 601 409 601C436.3 601 463.7 601 491 601C518.3 601 545.7 601 573 601C600.3 601 627.7 601 654.8 601C682 601 709 601 736.2 601C763.3 601 790.7 601 818 601C845.3 601 872.7 601 886.3 601L900 601L900 407L886.3 416C872.7 425 845.3 443 818 448C790.7 453 763.3 445 736.2 458C709 471 682 505 654.8 502C627.7 499 600.3 459 573 444C545.7 429 518.3 439 491 442C463.7 445 436.3 441 409 445C381.7 449 354.3 461 327 460C299.7 459 272.3 445 245.2 434C218 423 191 415 163.8 433C136.7 451 109.3 495 82 504C54.7 513 27.3 487 13.7 474L0 461Z" fill="#091a28"></path></svg>