<svg id="visual" viewBox="0 0 900 600" width="900" height="600" xmlns="http://www.w3.org/2000/svg" xmlns:xlink="http://www.w3.org/1999/xlink" version="1.1"><rect x="0" y="0" width="900" height="600" fill="#83c6fd"></rect><path d="M0 410L129 376L257 427L386 374L514 421L643 436L771 376L900 426L900 601L771 601L643 601L514 601L386 601L257 601L129 601L0 601Z" fill="#001122"></path><path d="M0 424L129 419L257 399L386 416L514 453L643 395L771 445L900 410L900 601L771 601L643 601L514 601L386 601L257 601L129 601L0 601Z" fill="#002e52"></path><path d="M0 453L129 445L257 438L386 489L514 469L643 450L771 476L900 491L900 601L771 601L643 601L514 601L386 601L257 601L129 601L0 601Z" fill="#004c88"></path><path d="M0 535L129 494L257 495L386 493L514 513L643 503L771 542L900 508L900 601L771 601L643 601L514 601L386 601L257 601L129 601L0 601Z" fill="#006bc2"></path><path d="M0 545L129 563L257 558L386 554L514 562L643 526L771 529L900 565L900 601L771 601L643 601L514 601L386 601L257 601L129 601L0 601Z" fill="#008cff"></path></svg>